<?xml version="1.0" standalone="no"?>
<!DOCTYPE svg PUBLIC "-//W3C//DTD SVG 20010904//EN"
 "http://www.w3.org/TR/2001/REC-SVG-20010904/DTD/svg10.dtd">
<svg version="1.0" xmlns="http://www.w3.org/2000/svg"
 width="804.000000pt" height="804.000000pt" viewBox="0 0 804.000000 804.000000"
 preserveAspectRatio="xMidYMid meet">
<metadata>
Created by potrace 1.11, written by Peter Selinger 2001-2013
</metadata>
<g transform="translate(0.000000,804.000000) scale(0.100000,-0.100000)"
fill="#000000" stroke="none">
<path d="M7328 6128 c-93 -8 -136 -29 -208 -99 -59 -58 -110 -115 -110 -124 0
-3 -8 -17 -17 -32 -10 -14 -18 -33 -19 -41 -7 -44 -67 -49 -629 -57 -220 -2
-905 -5 -1522 -5 l-1123 0 7 -287 c4 -159 7 -569 7 -913 l1 -625 -252 -126
c-139 -70 -253 -124 -253 -120 0 3 -4 2 -8 -4 -9 -13 -104 -61 -114 -58 -4 2
-8 -2 -8 -7 0 -6 -4 -10 -9 -10 -5 0 -281 -134 -613 -299 -606 -300 -1973
-978 -2080 -1032 l-58 -29 0 67 c0 121 -11 182 -33 184 -7 0 -19 2 -27 3 -64
13 -87 -54 -96 -287 -2 -65 -5 -121 -5 -125 -1 -4 -1 -9 0 -12 1 -3 4 -59 6
-125 10 -256 26 -315 83 -315 51 0 65 20 66 93 1 37 3 67 6 67 3 0 4 45 2 100
l-3 100 3580 0 3581 0 0 33 c0 17 2 700 4 1517 5 1351 7 1562 20 1625 3 11 5
27 5 35 2 22 16 41 32 43 57 9 231 162 269 237 22 44 32 104 32 203 1 149 -21
202 -125 306 -83 83 -137 112 -222 118 -33 2 -67 5 -75 6 -8 2 -50 -1 -92 -5z
m172 -171 c107 -37 199 -184 185 -296 -12 -92 -121 -217 -210 -240 -51 -13
-132 -5 -175 18 -149 76 -208 246 -136 387 66 126 200 179 336 131z m-572
-339 c17 -2 32 -5 32 -8 0 -8 -253 -142 -620 -327 -118 -59 -217 -110 -220
-113 -3 -3 -156 -79 -340 -170 -184 -91 -337 -167 -340 -170 -3 -3 -34 -19
-70 -37 -36 -17 -123 -60 -195 -96 -71 -36 -339 -169 -595 -296 -256 -127
-472 -235 -480 -240 -17 -11 -171 -88 -212 -107 l-28 -13 0 796 0 795 1518 -6
c834 -3 1532 -7 1550 -8z m182 -258 c68 -52 128 -88 158 -95 41 -8 43 -16 58
-165 3 -36 8 -714 11 -1507 l5 -1443 -1741 0 -1741 0 0 833 1 832 1587 792
c1103 551 1593 790 1607 786 11 -3 36 -18 55 -33z m-3398 -1642 c3 -7 5 -358
6 -780 l2 -768 -97 -1 c-54 0 -222 -2 -373 -5 -473 -8 -2680 -17 -2680 -11 0
3 96 53 213 112 116 59 218 111 224 117 7 6 13 7 13 2 0 -5 4 -4 8 1 8 12 267
143 1647 837 556 279 1015 507 1021 508 7 0 14 -6 16 -12z"/>
</g>
</svg>
