<svg width="402" height="253" xmlns="http://www.w3.org/2000/svg">
 <style type="text/css">.st0{fill:#CFB60F;}
	.st1{font-family:'Goldoni';}
	.st2{font-size:67.5328px;}</style>

 <g>
  <title>background</title>
  <rect fill="none" id="canvas_background" height="255" width="404" y="-1" x="-1"/>
 </g>
 <g>
  <title>Layer 1</title>
  <path fill="none" id="svg_3" d="m354.830005,27.069996c-3.44,3.43 -6.15,7.41 -6.15,9.04c0,2.53 -7.96,2.89 -81.360001,2.89l-82.320001,0l1,45.640001l-0.18,45.690001l-84.910001,42.000001l-84.910001,42.190001l0,-6.5c0,-5.06 -0.72,-6.33 -3.44,-6.33s-3.43,1.81 -4.15,10.31c-0.54,5.78 -0.54,15.55 0,21.69c0.72,9.58 1.45,11.39 4.16,11.39c2.89,0 3.44,-1.45 3.44,-9.04l0,-9.04l179.000003,0l179.000003,0l0,-81.350001c0,-73.390001 0.36,-81.350001 2.89,-81.350001c1.63,0 5.61,-2.71 9.04,-6.15c5.42,-5.42 6.15,-7.23 6.15,-15.55s-0.72,-10.12 -6.15,-15.55c-5.42,-5.42 -7.23,-6.15 -15.55,-6.15s-10.13,0.75 -15.56,6.17zm21.7,3.15c5.24,2.53 9.22,10.67 7.41,16.09c-0.72,1.99 -2.89,5.42 -5.06,7.23c-10.31,9.76 -26.76,-2.89 -21.15,-16.27c3.25,-7.77 10.84,-10.66 18.8,-7.05zm-28.04,16.68c0,0.54 -34.900001,18.44 -77.750001,39.780001l-77.740001,38.870001l0,-39.780001l0,-39.770001l77.750001,0c42.850001,0 77.740001,0.36 77.740001,0.9zm8.9,13.99c2.54,1.99 5.8,3.62 7.07,3.62c2.18,0 2.54,13.2 2.54,77.750001l0,77.740001l-87.000001,0l-87.000001,0l0,-41.590001l0,-41.590001l79.390001,-39.600001c43.500001,-21.88 79.570001,-39.780001 79.750001,-39.780001c0.36,-0.17 2.72,1.46 5.25,3.45zm-171.390003,119.220002l0,38.890001l-79.050001,1l-79.200001,0l78.650001,-39.890001c43.210001,-21.7 78.830001,-39.600001 79.190001,-39.600001c0.19,-0.18 0.37,17.72 0.41,39.600001z" class="st0"/>
 </g>
</svg>