<?xml version="1.0" encoding="utf-8"?>
<!-- Generator: Adobe Illustrator 21.0.0, SVG Export Plug-In . SVG Version: 6.00 Build 0)  -->
<svg version="1.1" id="Capa_1" xmlns="http://www.w3.org/2000/svg" xmlns:xlink="http://www.w3.org/1999/xlink" x="0px" y="0px"
	 viewBox="0 0 400 313" style="enable-background:new 0 0 400 313;" xml:space="preserve">
<style type="text/css">
	.st0{fill:#CFB60F;}
	.st1{font-family:'Goldoni';}
	.st2{font-size:67.5328px;}
</style>
<g>
	<g transform="translate(0.000000,300.000000) scale(0.100000,-0.100000)">
		<path class="st0" d="M3548.3,2729.3c-34.4-34.3-61.5-74.1-61.5-90.4c0-25.3-79.6-28.9-813.6-28.9H1850l10-456.4l-1.8-456.9
			l-849.1-420L160,854.8v65c0,50.6-7.2,63.3-34.4,63.3S91.3,965,84.1,880c-5.4-57.8-5.4-155.5,0-216.9
			c7.2-95.8,14.5-113.9,41.6-113.9c28.9,0,34.4,14.5,34.4,90.4V730h1790h1790v813.5c0,733.9,3.6,813.5,28.9,813.5
			c16.3,0,56.1,27.1,90.4,61.5c54.2,54.2,61.5,72.3,61.5,155.5s-7.2,101.2-61.5,155.5c-54.2,54.2-72.3,61.5-155.5,61.5
			S3602.6,2783.5,3548.3,2729.3z M3765.3,2697.8c52.4-25.3,92.2-106.7,74.1-160.9c-7.2-19.9-28.9-54.2-50.6-72.3
			c-103.1-97.6-267.6,28.9-211.5,162.7C3609.8,2705,3685.7,2733.9,3765.3,2697.8z M3484.9,2531c0-5.4-349-184.4-777.5-397.8
			L1930,1744.5v397.8V2540h777.5C3136,2540,3484.9,2536.4,3484.9,2531z M3573.9,2391.1c25.4-19.9,58-36.2,70.7-36.2
			c21.8,0,25.4-132,25.4-777.5V800h-870h-870v415.9v415.9l793.9,396c435,218.8,795.7,397.8,797.5,397.8
			C3525,2427.3,3548.6,2411,3573.9,2391.1z M1860,1198.9V810l-790.5-10H277.5l786.5,398.9c432.1,217,788.3,396,791.9,396
			C1857.8,1596.7,1859.6,1417.7,1860,1198.9z"/>
	</g>
	<text transform="matrix(1 0 0 1 22.5947 300.4619)" class="st0 st1 st2">pararisium</text>
</g>
</svg>
